<?xml version="1.0" encoding="UTF-8"?>
<svg width="100px" height="90px" viewBox="0 0 100 90" version="1.1" xmlns="http://www.w3.org/2000/svg" xmlns:xlink="http://www.w3.org/1999/xlink">
    <title>undraw_mail_sent_re_0ofv (1)</title>
    <g id="barcode" stroke="none" stroke-width="1" fill="none" fill-rule="evenodd">
        <g id="5Success" transform="translate(-130.000000, -444.000000)" fill-rule="nonzero">
            <g id="Group" transform="translate(0.000000, 414.000000)">
                <g id="undraw_mail_sent_re_0ofv-(1)" transform="translate(130.000000, 30.000000)">
                    <path d="M98.8248842,34 C98.7891619,34 98.7542944,33.9891044 98.7249942,33.9688147 L50.3272152,0.502522128 C50.0255636,0.294913615 49.6256612,0.295590807 49.3247246,0.504219738 L1.27555768,33.9684759 C1.196416,34.0235916 1.08725937,34.0045702 1.03174952,33.9259905 C0.976239681,33.8474107 0.995397074,33.7390291 1.07453876,33.6839134 L49.1237459,0.219657196 C49.545086,-0.0723784123 50.1049408,-0.0732919405 50.5272454,0.217367073 L98.9250226,33.6835693 C98.9877709,33.7269834 99.0148654,33.8058209 98.9919344,33.8782641 C98.9690033,33.9507074 98.9013571,34 98.8248772,34 L98.8248842,34 Z" id="Path" fill="#3F3D56"></path>
                    <polygon id="Path" fill="#E6E6E6" points="5 35.3156494 50.8261485 1 97 37.7573633 53.1873113 64 29.4007817 58.5217391"></polygon>
                    <path d="M30.9733458,80 L9.02665416,80 C8.66002326,80.000459 8.32104045,79.8099608 8.13758876,79.5003712 C7.95413708,79.1907815 7.95413708,78.8092185 8.13758876,78.4996288 C8.32104045,78.1900392 8.66002326,77.999541 9.02665416,78 L30.9733458,78 C31.3399767,77.999541 31.6789596,78.1900392 31.8624112,78.4996288 C32.0458629,78.8092185 32.0458629,79.1907815 31.8624112,79.5003712 C31.6789596,79.8099608 31.3399767,80.000459 30.9733458,80 Z" id="Path" fill="#987A54"></path>
                    <path d="M16.9658268,75 L9.03417321,75 C8.66485716,75.000459 8.32339169,74.8099608 8.13859644,74.5003712 C7.95380119,74.1907815 7.95380119,73.8092185 8.13859644,73.4996288 C8.32339169,73.1900392 8.66485716,72.999541 9.03417321,73 L16.9658268,73 C17.3351428,72.999541 17.6766083,73.1900392 17.8614036,73.4996288 C18.0461988,73.8092185 18.0461988,74.1907815 17.8614036,74.5003712 C17.6766083,74.8099608 17.3351428,75.000459 16.9658268,75 L16.9658268,75 Z" id="Path" fill="#987A54"></path>
                    <path d="M51.4403632,53 C51.2642457,53 51.0897832,52.9679666 50.9267517,52.9051752 L22,41.5922903 L22,6.18108225 C22.0008059,5.52910344 22.56136,5.00075962 23.2530864,5 L78.7469136,5 C79.4386396,5.00076055 79.9991931,5.52910383 80,6.18108225 L80,41.6170086 L79.9456322,41.6389245 L51.9695344,52.8996528 C51.8020018,52.9660067 51.6220861,53 51.4403632,53 L51.4403632,53 Z" id="Path" fill="#FFFFFF"></path>
                    <path d="M50.4390082,54 C50.25179,54 50.0663262,53.9645926 49.8929927,53.8951545 L21,42.1295824 L21,5.313557 C21.0008369,4.58844 21.5995966,4.00082137 22.3384615,4 L77.6615385,4 C78.4004034,4.00082137 78.9991631,4.58844 79,5.313557 L79,42.154554 L51.0015797,53.8888214 C50.8234975,53.9623617 50.6322139,54 50.4390082,54 Z M21.3569159,41.8956064 L50.0290982,53.5712979 C50.2965279,53.677786 50.5960401,53.676033 50.8621566,53.566422 L78.6430858,41.9233137 L78.6430858,5.313557 C78.6424437,4.78181609 78.2033699,4.35091207 77.6615474,4.35028187 L22.3384705,4.35028187 C21.7966479,4.35091207 21.3575741,4.78181609 21.3569159,5.313557 L21.3569159,41.8956064 Z" id="Shape" fill="#3F3D56"></path>
                    <path d="M98.7719298,34 L98.736807,34 L78.5964912,42.6324564 L51.0403825,54.4435255 C50.8229187,54.5353445 50.5780091,54.5366115 50.359614,54.4470475 L21.9298246,42.6077987 L1.29471579,34.0140881 L1.26319298,34 L1.22807018,34 C0.55013757,34.0007551 0,34.5522136 0,35.2327044 L0,88.7672956 C0,89.447786 0.55013797,89.999244 1.22807018,90 L98.7719298,90 C99.449862,89.999244 100,89.447786 100,88.7672956 L100,35.2327044 C100,34.5522136 99.4498624,34.0007551 98.7719298,34 L98.7719298,34 Z M99.6491228,88.7672956 C99.6491228,89.2535035 99.2563099,89.6477987 98.7719298,89.6477987 L1.22807018,89.6477987 C0.743690098,89.6477987 0.350877193,89.2535035 0.350877193,88.7672956 L0.350877193,35.2327044 C0.350877193,34.7595897 0.723790156,34.371178 1.19474737,34.3522013 L21.9298246,42.9881726 L50.2246088,54.7728267 C50.5308935,54.8979182 50.8740926,54.8960184 51.1789842,54.7675436 L78.5964912,43.0145912 L98.8070526,34.3522013 C99.2770968,34.3725742 99.6480404,34.7604481 99.6491228,35.2327044 L99.6491228,88.7672956 Z" id="Shape" fill="#3F3D56"></path>
                    <path d="M50.0493332,45 C48.9855339,45.0019753 47.9499366,44.6575961 47.0987573,44.0187917 L47.0459905,43.9791289 L35.9342752,35.4621618 C34.5342732,34.3882839 33.8128899,32.6482586 34.0418635,30.8975367 C34.270837,29.1468148 35.4153809,27.6513725 37.0443565,26.9745286 C38.673332,26.2976846 40.5392592,26.5422677 41.9392611,27.6161457 L49.1365893,33.1410811 L66.1450212,10.9349888 C66.9416775,9.89480347 68.1184723,9.214059 69.4165052,9.04252234 C70.7145381,8.87098568 72.0274725,9.22270936 73.0664566,10.0203125 L72.9607088,10.1640552 L73.0692028,10.0224031 C75.2299514,11.6849143 75.6386806,14.7846933 73.982865,16.951565 L53.9768682,43.0712508 C53.0390204,44.2912279 51.5870543,45.004258 50.0493332,45 L50.0493332,45 Z" id="Path" fill="#987A54"></path>
                </g>
            </g>
        </g>
    </g>
</svg>